<svg width="36" height="36" fill="#0d6efd"
     style="fill-rule:evenodd;clip-rule:evenodd;stroke-linejoin:round;stroke-miterlimit:2;"
     viewBox="0 0 512 512" xml:space="preserve" xmlns="http://www.w3.org/2000/svg">
    <path d="M449.446,0c34.525,0 62.554,28.03 62.554,62.554l0,386.892c0,34.524
    -28.03,62.554 -62.554,62.554l-386.892,0c-34.524,0 -62.554,-28.03
    -62.554,-62.554l0,-386.892c0,-34.524 28.029,-62.554 62.554,-62.554l386.892,0Zm-147.273,357.466c20.236,0
    36.767,16.531 36.767,36.767c0,20.236 -16.531,36.767 -36.767,36.767c-20.237,0 -36.767,-16.531
    -36.767,-36.767l0,-36.767l36.767,0Zm-129.113,-55.293c0,-20.237 16.531,-36.767
    36.767,-36.767c20.237,0 36.767,16.53 36.767,36.767l0,92.06c0,20.236 -16.53,36.767
    -36.767,36.767c-20.236,0 -36.767,-16.531 -36.767,-36.767l0,-92.06Zm-18.526,0c0,20.236
    -16.531,36.767 -36.767,36.767c-20.236,0 -36.767,-16.531 -36.767,-36.767c0,-20.237
    16.531,-36.767 36.767,-36.767l36.767,0l0,36.767Zm239.699,36.767c20.237,-0.001
    36.767,-16.532 36.767,-36.767c0,-20.237 -16.531,-36.767 -36.767,-36.767l-92.06,0c-20.237,0
    -36.767,16.53 -36.767,36.767c0,20.236 16.53,36.767 36.767,36.767l92.06,0Zm0,-92.346c20.237,0
    36.767,-16.531 36.767,-36.767c0,-20.236 -16.531,-36.767 -36.767,-36.767c-20.236,0
    -36.767,16.531 -36.767,36.767l0,36.767l36.767,0Zm-184.406,0c20.237,0 36.767,-16.531
    36.767,-36.767c0,-20.236 -16.53,-36.767 -36.767,-36.767l-92.06,0c-20.236,0 -36.767,16.531
    -36.767,36.767c0,20.237 16.531,36.767 36.767,36.767l92.06,0Zm129.113,-36.767c0,20.237
    -16.531,36.767 -36.767,36.767c-20.237,0 -36.767,-16.53 -36.767,-36.767l0,-92.06c0,-20.236
    16.53,-36.767 36.767,-36.767c20.236,0 36.767,16.531 36.767,36.767l0,92.06Zm-92.346,-55.293l0,-36.767c0,-20.236
    -16.53,-36.767 -36.767,-36.767c-20.236,0 -36.767,16.531 -36.767,36.767c0,20.236 16.531,36.767
    36.767,36.767l36.767,0Z"/>
</svg>